<?xml version="1.0" encoding="utf-8"?><svg viewBox="0 0 32 32" xmlns="http://www.w3.org/2000/svg" xmlns:xlink="http://www.w3.org/1999/xlink"><style>:root>svg{display:none}:root>svg:target{display:block}</style><svg viewBox="0 0 16 16" id="arrow-left" xmlns="http://www.w3.org/2000/svg"><path d="M6.276 8l4.667-4.667L10 2.391 4.39 8 10 13.61l.943-.943L6.276 8z"/></svg><svg viewBox="0 0 16 16" id="arrow-right" xmlns="http://www.w3.org/2000/svg"><path d="M6 2.39l-.943.943L9.724 8l-4.667 4.667.943.943L11.61 8 6 2.39z"/></svg><svg fill="none" viewBox="0 0 32 32" id="cross-dark" xmlns="http://www.w3.org/2000/svg"><path d="M25 7L7 25m18 0L7 7" stroke="#121517" stroke-width="2" stroke-linecap="round" stroke-linejoin="round"/></svg><svg fill="none" viewBox="0 0 22 22" id="instagram" xmlns="http://www.w3.org/2000/svg"><path d="M11 8.136A2.87 2.87 0 008.136 11 2.87 2.87 0 0011 13.864 2.87 2.87 0 0013.864 11 2.87 2.87 0 0011 8.136zM19.59 11c0-1.186.01-2.361-.056-3.545-.067-1.375-.38-2.595-1.386-3.6-1.008-1.008-2.226-1.32-3.601-1.386-1.186-.067-2.361-.056-3.545-.056-1.186 0-2.361-.011-3.545.056-1.375.066-2.595.38-3.6 1.385C2.848 4.862 2.536 6.08 2.47 7.455 2.404 8.641 2.415 9.816 2.415 11c0 1.184-.011 2.361.056 3.545.066 1.375.38 2.595 1.385 3.6 1.008 1.008 2.226 1.32 3.601 1.387 1.186.066 2.361.055 3.545.055 1.186 0 2.361.011 3.545-.055 1.375-.067 2.595-.38 3.6-1.386 1.008-1.008 1.32-2.226 1.387-3.601.068-1.184.055-2.359.055-3.545zM11 15.406A4.4 4.4 0 016.593 11 4.4 4.4 0 0111 6.594 4.4 4.4 0 0115.406 11 4.4 4.4 0 0111 15.406zm4.587-7.964a1.028 1.028 0 110-2.058 1.028 1.028 0 110 2.058z" fill="#000"/></svg><svg viewBox="0 0 22 22" id="telegram" xmlns="http://www.w3.org/2000/svg"><path fill-rule="evenodd" clip-rule="evenodd" d="M13.68 16.98c.826.364 1.136-.397 1.136-.397L17 5.544c-.017-.744-1.015-.294-1.015-.294L3.758 10.077s-.585.208-.533.571c.051.364.515.537.515.537l3.079 1.038s.929 3.062 1.118 3.65c.172.571.326.589.326.589.172.069.327-.052.327-.052l1.995-1.817 3.096 2.388zm.534-9.48s.43-.26.412 0c0 0 .07.034-.154.276-.207.208-5.074 4.602-5.727 5.19a.182.182 0 00-.086.156l-.19 1.627c-.034.173-.257.19-.309.034l-.808-2.664a.256.256 0 01.103-.294l6.759-4.326z"/></svg><svg viewBox="0 0 22 22" id="whatsapp" xmlns="http://www.w3.org/2000/svg"><path d="M16.123 5.963a6.383 6.383 0 00-4.57-1.909c-3.613 0-6.518 2.934-6.482 6.505 0 1.13.319 2.226.85 3.216L5 17.133l3.436-.883c.956.53 2.019.777 3.082.777 3.577 0 6.482-2.934 6.482-6.504a6.408 6.408 0 00-1.877-4.56zm-4.57 9.968a5.27 5.27 0 01-2.727-.742l-.213-.106-2.054.53.53-2.015-.14-.212C5.388 10.876 6.133 7.554 8.683 6c2.55-1.556 5.845-.813 7.403 1.732 1.559 2.545.815 5.832-1.736 7.387a5.172 5.172 0 01-2.798.813zm3.117-3.923l-.39-.177s-.566-.247-.92-.424c-.036 0-.071-.036-.107-.036a.512.512 0 00-.248.071s-.035.035-.53.601a.195.195 0 01-.178.106h-.035a.27.27 0 01-.142-.07l-.177-.071c-.39-.177-.744-.39-1.027-.672-.071-.07-.178-.141-.248-.212a3.952 3.952 0 01-.673-.848l-.036-.071c-.035-.035-.035-.07-.07-.141 0-.071 0-.142.035-.177 0 0 .141-.177.248-.283.07-.07.106-.177.177-.247.07-.106.106-.248.07-.354-.035-.177-.46-1.131-.566-1.343a.41.41 0 00-.248-.177h-.39c-.07 0-.141.036-.212.036l-.036.035c-.07.035-.141.106-.212.141-.071.071-.107.142-.177.212a1.8 1.8 0 00-.39 1.096c0 .283.07.566.177.813l.036.106a5.89 5.89 0 001.31 1.803l.142.141c.106.106.212.177.283.283a6.336 6.336 0 002.55 1.343c.107.036.249.036.355.071h.354c.177 0 .39-.07.531-.141.107-.071.178-.071.248-.142l.071-.07c.071-.071.142-.106.213-.177.07-.07.142-.141.177-.212.07-.142.106-.318.142-.495v-.248s-.036-.035-.107-.07z"/></svg></svg>